<?xml version="1.0" encoding="UTF-8" standalone="no"?>
<svg xmlns="http://www.w3.org/2000/svg" version="1.2" baseProfile="tiny" viewBox="0.00 0.00 948.00 948.00">
<g stroke-width="2.00" fill="none" stroke-linecap="butt">
<path stroke="#95827e" vector-effect="non-scaling-stroke" d="
  M 629.62 216.01
  L 621.95 214.68"
/>
<path stroke="#8b463e" vector-effect="non-scaling-stroke" d="
  M 621.95 214.68
  Q 626.37 173.58 595.99 147.12
  Q 594.97 146.23 594.27 147.39
  C 582.80 166.36 571.02 185.29 564.14 206.61"
/>
<path stroke="#95827e" vector-effect="non-scaling-stroke" d="
  M 564.14 206.61
  L 538.95 204.10"
/>
<path stroke="#95827e" vector-effect="non-scaling-stroke" d="
  M 796.65 403.99
  Q 806.14 400.96 816.41 399.82
  Q 817.39 399.72 817.90 399.19
  Q 818.51 398.56 818.78 397.72"
/>
<path stroke="#eccfc5" vector-effect="non-scaling-stroke" d="
  M 763.69 589.37
  Q 750.46 595.86 732.78 602.00
  Q 694.18 615.40 662.34 624.35
  C 650.45 627.69 636.52 630.96 623.82 634.17
  C 619.53 635.25 614.68 637.27 610.04 638.43
  Q 600.13 640.92 600.02 640.95
  Q 540.26 657.72 477.90 651.57
  Q 413.16 645.18 362.76 609.13
  Q 299.53 563.88 272.84 488.87
  C 255.45 440.02 250.94 385.87 253.69 334.00
  Q 253.82 331.48 251.20 329.13"
/>
<path stroke="#e79f8e" vector-effect="non-scaling-stroke" d="
  M 621.95 214.68
  L 564.14 206.61"
/>
<path stroke="#95827e" vector-effect="non-scaling-stroke" d="
  M 411.93 203.14
  L 388.40 204.65"
/>
<path stroke="#8b463e" vector-effect="non-scaling-stroke" d="
  M 388.40 204.65
  Q 386.08 199.44 383.81 194.33
  Q 372.74 169.35 358.14 147.67
  Q 357.36 146.50 356.29 147.41
  Q 330.49 169.45 329.91 204.00
  Q 329.83 208.76 329.89 213.49"
/>
<path stroke="#95827e" vector-effect="non-scaling-stroke" d="
  M 329.89 213.49
  Q 326.77 215.70 321.73 214.87"
/>
<path stroke="#e79f8e" vector-effect="non-scaling-stroke" d="
  M 388.40 204.65
  L 329.89 213.49"
/>
<path stroke="#727865" vector-effect="non-scaling-stroke" d="
  M 818.67 378.14
  Q 817.55 378.35 817.51 377.55
  A 0.86 0.86 0.0 0 0 816.65 376.74
  Q 807.96 376.74 799.00 376.77
  Q 798.14 376.78 796.95 377.76"
/>
<path stroke="#e29386" vector-effect="non-scaling-stroke" d="
  M 599.71 191.55
  Q 600.67 192.54 600.24 193.50
  Q 598.09 198.31 596.02 203.22
  A 0.33 0.33 0.0 0 0 596.37 203.67
  Q 596.63 203.63 596.79 203.43
  Q 602.32 196.23 607.67 189.30
  A 0.67 0.67 0.0 0 0 607.22 188.23
  L 596.76 186.99
  A 0.93 0.93 0.0 0 1 596.05 185.63
  Q 599.58 179.00 606.32 174.69
  A 0.53 0.53 0.0 0 0 606.24 173.76
  Q 605.58 173.49 604.84 173.59
  Q 582.99 176.69 577.85 197.89
  Q 577.73 198.38 578.05 198.78
  A 0.53 0.53 0.0 0 0 578.94 198.67
  Q 582.54 191.03 589.67 184.51
  Q 589.92 184.28 590.24 184.24
  A 0.62 0.62 0.0 0 1 590.94 184.94
  L 589.39 195.63
  A 0.66 0.66 0.0 0 0 590.41 196.27
  L 597.91 191.35
  A 1.42 1.41 51.2 0 1 599.71 191.55"
/>
<path stroke="#e29386" vector-effect="non-scaling-stroke" d="
  M 361.75 184.34
  A 0.52 0.52 0.0 0 1 362.58 184.13
  Q 367.79 188.64 371.81 195.63
  Q 374.30 199.95 373.49 195.03
  C 371.54 183.15 359.53 175.38 348.12 173.97
  Q 347.50 173.89 346.95 174.20
  A 0.88 0.87 -46.2 0 0 346.98 175.74
  Q 353.42 179.02 355.85 185.25
  Q 356.45 186.79 354.81 187.01
  Q 350.31 187.61 345.51 188.06
  Q 344.92 188.12 344.50 188.53
  A 0.87 0.87 0.0 0 0 344.52 189.79
  Q 351.15 195.86 355.21 203.93
  Q 355.55 204.61 355.79 203.89
  L 355.96 203.40
  Q 356.22 202.62 355.90 201.86
  L 351.49 191.63
  A 0.62 0.61 -37.6 0 1 351.58 190.98
  Q 351.87 190.61 352.28 190.65
  Q 352.54 190.68 352.76 190.81
  Q 357.52 193.58 362.14 196.16
  A 0.53 0.53 0.0 0 0 362.87 195.96
  Q 363.15 195.47 363.06 194.93
  Q 362.33 190.29 361.65 185.29
  Q 361.58 184.80 361.75 184.34"
/>
<path stroke="#c8e3b9" vector-effect="non-scaling-stroke" d="
  M 894.50 271.98
  A 86.11 86.11 0.0 0 0 808.39 185.87
  A 86.11 86.11 0.0 0 0 722.28 271.98
  A 86.11 86.11 0.0 0 0 808.39 358.09
  A 86.11 86.11 0.0 0 0 894.50 271.98"
/>
<path stroke="#c8e3b9" vector-effect="non-scaling-stroke" d="
  M 890.32 271.99
  A 81.92 81.92 0.0 0 0 808.40 190.07
  A 81.92 81.92 0.0 0 0 726.48 271.99
  A 81.92 81.92 0.0 0 0 808.40 353.91
  A 81.92 81.92 0.0 0 0 890.32 271.99"
/>
<path stroke="#c8e3b9" vector-effect="non-scaling-stroke" d="
  M 788.40 296.23
  A 0.52 0.52 0.0 0 1 787.66 296.23
  L 761.83 270.38
  A 0.52 0.52 0.0 0 0 761.09 270.39
  L 752.90 278.84
  A 0.52 0.52 0.0 0 0 752.90 279.57
  L 787.70 314.36
  A 0.52 0.52 0.0 0 0 788.44 314.36
  L 864.14 238.52
  A 0.52 0.52 0.0 0 0 864.13 237.77
  L 855.56 229.74
  A 0.52 0.52 0.0 0 0 854.83 229.76
  L 788.40 296.23"
/>
<path stroke="#9a7e88" vector-effect="non-scaling-stroke" d="
  M 514.16 259.06
  Q 509.51 259.17 505.05 259.11
  A 1.15 1.15 0.0 0 1 503.93 258.18
  L 498.24 227.54
  Q 498.16 227.10 497.75 227.29
  L 497.44 227.43
  A 0.37 0.36 -12.9 0 0 497.23 227.76
  L 497.30 264.70
  A 1.59 1.59 0.0 0 0 498.66 266.27
  Q 500.43 266.52 502.23 266.65
  Q 558.07 270.57 611.81 265.79
  A 0.81 0.81 0.0 0 0 612.35 264.46
  Q 611.55 263.54 610.45 263.43
  Q 557.80 258.07 514.16 259.06"
/>
<path stroke="#9a7e88" vector-effect="non-scaling-stroke" d="
  M 449.78 257.80
  A 0.75 0.74 -86.0 0 1 449.09 258.41
  L 338.37 264.23
  A 0.31 0.31 0.0 0 0 338.08 264.54
  L 338.08 264.82
  Q 338.09 264.88 338.25 264.88
  L 457.28 267.74
  Q 458.33 267.77 458.29 266.72
  L 456.75 228.45
  A 0.68 0.68 0.0 0 0 455.72 227.89
  Q 455.36 228.10 455.28 228.52
  Q 452.54 243.35 449.78 257.80"
/>
<path stroke="#9a7e88" vector-effect="non-scaling-stroke" d="
  M 456.85 278.89
  Q 440.31 293.42 437.20 314.25
  Q 436.40 319.59 433.41 322.61"
/>
<path stroke="#eccfc5" vector-effect="non-scaling-stroke" d="
  M 433.41 322.61
  Q 421.90 319.76 415.91 325.31"
/>
<path stroke="#f2c36d" vector-effect="non-scaling-stroke" d="
  M 415.91 325.31
  L 372.97 330.17"
/>
<path stroke="#eccfc5" vector-effect="non-scaling-stroke" d="
  M 372.97 330.17
  L 352.78 327.60
  A 1.41 1.40 0.2 0 0 351.21 329.15
  Q 351.32 330.03 351.93 330.77
  Q 356.39 336.14 361.19 342.18
  A 2.34 2.32 70.5 0 0 363.04 343.07
  Q 395.80 342.83 428.24 334.93
  Q 428.77 334.80 428.97 334.46"
/>
<path stroke="#9a7e88" vector-effect="non-scaling-stroke" d="
  M 428.97 334.46
  Q 429.37 334.51 429.62 334.12
  Q 444.35 311.67 459.62 288.95"
/>
<path stroke="#e79f8e" vector-effect="non-scaling-stroke" d="
  M 459.62 288.95
  L 474.00 308.60"
/>
<path stroke="#9a7e88" vector-effect="non-scaling-stroke" d="
  M 474.00 308.60
  L 477.30 381.39
  A 2.34 2.33 59.3 0 1 476.97 382.69
  L 455.15 419.45
  Q 454.87 419.94 455.21 420.39
  L 455.41 420.64
  A 0.43 0.42 46.6 0 0 456.07 420.66
  L 481.49 390.44
  A 1.31 1.31 0.0 0 1 482.16 390.03
  Q 483.30 389.76 483.69 390.34
  Q 492.95 404.09 501.92 417.40
  Q 502.27 417.92 502.54 417.35
  Q 502.63 417.16 502.57 416.96
  C 499.00 403.93 493.52 392.68 486.20 381.82
  Q 485.88 381.34 485.86 380.77
  L 483.57 310.47"
/>
<path stroke="#e79f8e" vector-effect="non-scaling-stroke" d="
  M 483.57 310.47
  L 496.45 288.92"
/>
<path stroke="#9a7e88" vector-effect="non-scaling-stroke" d="
  M 496.45 288.92
  C 505.56 298.76 513.08 309.56 519.84 320.98
  Q 520.61 322.28 521.41 322.78
  Q 522.59 323.53 524.16 322.25
  Q 524.60 321.90 524.42 321.36
  Q 521.08 311.39 517.29 302.00
  Q 511.69 288.15 499.12 279.29"
/>
<path stroke="#e79f8e" vector-effect="non-scaling-stroke" d="
  M 499.12 279.29
  Q 496.60 276.08 493.17 273.10
  C 481.02 262.58 465.55 266.17 456.85 278.89"
/>
<path stroke="#904248" vector-effect="non-scaling-stroke" d="
  M 499.12 279.29
  L 496.45 288.92"
/>
<path stroke="#904248" vector-effect="non-scaling-stroke" d="
  M 483.57 310.47
  L 479.62 312.04
  A 2.09 2.08 55.0 0 1 477.47 311.66
  L 474.00 308.60"
/>
<path stroke="#904248" vector-effect="non-scaling-stroke" d="
  M 459.62 288.95
  L 456.85 278.89"
/>
<path stroke="#957280" vector-effect="non-scaling-stroke" d="
  M 428.97 334.46
  C 428.75 330.09 431.00 326.34 433.41 322.61"
/>
<path stroke="#edb765" vector-effect="non-scaling-stroke" d="
  M 372.97 330.17
  Q 396.66 338.35 415.91 325.31"
/>
<path stroke="#f8da97" vector-effect="non-scaling-stroke" d="
  M 366.47 322.58
  Q 375.46 323.41 382.50 323.46
  Q 398.12 323.56 414.48 320.35"
/>
<path stroke="#f2c36d" vector-effect="non-scaling-stroke" d="
  M 414.48 320.35
  C 417.60 321.02 421.10 320.99 423.34 318.44
  Q 441.16 298.17 445.21 272.97
  A 0.90 0.90 0.0 0 0 444.35 271.93
  L 427.27 271.35"
/>
<path stroke="#9a7e88" vector-effect="non-scaling-stroke" d="
  M 427.27 271.35
  L 357.66 270.65"
/>
<path stroke="#f2c36d" vector-effect="non-scaling-stroke" d="
  M 357.66 270.65
  L 329.16 270.24
  A 0.76 0.76 0.0 0 0 328.39 271.13
  Q 329.50 277.51 332.02 282.51
  Q 342.44 303.17 358.19 320.11
  C 360.72 322.84 362.97 323.19 366.47 322.58"
/>
<path stroke="#9b6627" vector-effect="non-scaling-stroke" d="
  M 357.66 270.65
  C 359.96 283.34 366.93 296.68 378.02 303.74
  C 394.80 314.43 409.33 305.18 418.98 290.61"
/>
<path stroke="#f2c36d" vector-effect="non-scaling-stroke" d="
  M 418.98 290.61
  Q 426.05 292.41 428.47 287.67
  C 430.26 284.14 428.46 280.65 425.23 278.84"
/>
<path stroke="#9b6627" vector-effect="non-scaling-stroke" d="
  M 425.23 278.84
  L 427.27 271.35"
/>
<path stroke="#f9c136" vector-effect="non-scaling-stroke" d="
  M 414.48 320.35
  Q 419.35 315.06 422.00 309.76
  C 423.00 307.78 424.13 303.02 422.42 300.92
  C 420.93 299.09 418.67 299.68 417.23 301.25
  C 411.07 307.98 402.90 312.05 393.89 311.80
  Q 383.37 311.51 375.87 306.73
  C 371.64 304.04 368.34 300.17 364.45 297.12
  C 361.39 294.72 355.51 293.29 352.41 296.48
  C 349.65 299.33 350.82 304.18 352.58 307.20
  Q 357.54 315.72 366.47 322.58"
/>
<path stroke="#9a7e88" vector-effect="non-scaling-stroke" d="
  M 425.23 278.84
  C 419.90 277.90 415.18 281.06 416.85 286.91
  Q 417.33 288.59 418.98 290.61"
/>
<path stroke="#9a7e88" vector-effect="non-scaling-stroke" d="
  M 596.73 271.18
  L 526.22 271.80"
/>
<path stroke="#f2c36d" vector-effect="non-scaling-stroke" d="
  M 526.22 271.80
  L 510.12 272.27
  A 1.05 1.04 81.5 0 0 509.15 273.59
  Q 514.61 293.41 522.93 309.50
  C 527.23 317.81 534.76 325.26 544.57 324.09"
/>
<path stroke="#f8da97" vector-effect="non-scaling-stroke" d="
  M 544.57 324.09
  Q 567.27 325.64 588.70 322.91"
/>
<path stroke="#f2c36d" vector-effect="non-scaling-stroke" d="
  M 588.70 322.91
  L 595.42 321.06"
/>
<path stroke="#eccfc5" vector-effect="non-scaling-stroke" d="
  M 595.42 321.06
  Q 602.03 322.32 608.49 320.04
  C 609.77 319.59 610.05 318.85 610.77 317.76
  Q 619.39 304.78 619.24 289.35"
/>
<path stroke="#f2c36d" vector-effect="non-scaling-stroke" d="
  M 619.24 289.35
  L 624.88 271.68
  A 0.71 0.71 0.0 0 0 624.19 270.76
  L 596.73 271.18"
/>
<path stroke="#edb765" vector-effect="non-scaling-stroke" d="
  M 619.24 289.35
  Q 609.39 307.34 595.42 321.06"
/>
<path stroke="#f9c136" vector-effect="non-scaling-stroke" d="
  M 588.70 322.91
  Q 593.39 317.23 598.03 312.32
  Q 601.04 309.12 601.93 307.32
  C 603.43 304.31 604.50 299.14 602.00 296.32
  C 595.96 289.49 585.82 301.32 581.84 305.11
  Q 579.31 307.52 575.90 308.94
  Q 557.61 316.60 541.48 305.27
  Q 539.13 303.62 536.92 301.93
  C 534.34 299.95 529.36 300.71 530.44 305.01
  C 532.61 313.61 537.83 318.76 544.57 324.09"
/>
<path stroke="#9b6627" vector-effect="non-scaling-stroke" d="
  M 526.22 271.80
  Q 529.97 285.78 539.28 296.44
  C 549.73 308.42 565.03 312.30 578.84 303.09
  Q 582.49 300.65 589.10 291.76"
/>
<path stroke="#f2c36d" vector-effect="non-scaling-stroke" d="
  M 589.10 291.76
  C 595.44 289.77 599.10 285.51 593.63 279.11"
/>
<path stroke="#9b6627" vector-effect="non-scaling-stroke" d="
  M 593.63 279.11
  L 596.73 271.18"
/>
<path stroke="#9a7e88" vector-effect="non-scaling-stroke" d="
  M 593.63 279.11
  C 582.21 276.81 580.17 287.15 589.10 291.76"
/>
<path stroke="#eccfc5" vector-effect="non-scaling-stroke" d="
  M 532.53 336.49
  Q 561.81 342.50 591.53 342.20
  A 2.09 2.09 0.0 0 0 593.13 341.43
  Q 597.76 335.79 602.59 329.73
  A 1.05 1.00 -44.7 0 0 602.63 328.47
  Q 602.41 328.18 601.75 328.23
  Q 588.47 329.31 575.75 330.56"
/>
<path stroke="#f2c36d" vector-effect="non-scaling-stroke" d="
  M 575.75 330.56
  L 546.98 329.75"
/>
<path stroke="#eccfc5" vector-effect="non-scaling-stroke" d="
  M 546.98 329.75
  L 533.06 328.67
  A 0.17 0.16 16.2 0 0 532.90 328.75
  Q 530.98 331.56 530.00 331.32"
/>
<path stroke="#95827e" vector-effect="non-scaling-stroke" d="
  M 530.00 331.32
  Q 528.09 328.70 526.01 326.24
  Q 525.31 325.41 524.37 325.78
  A 1.10 1.10 0.0 0 0 523.69 327.05
  C 524.56 330.86 527.50 337.32 532.53 336.49"
/>
<path stroke="#8f7676" vector-effect="non-scaling-stroke" d="
  M 530.00 331.32
  L 532.53 336.49"
/>
<path stroke="#edb765" vector-effect="non-scaling-stroke" d="
  M 546.98 329.75
  Q 548.84 331.29 552.46 332.07
  Q 559.76 333.64 565.00 333.53
  Q 570.74 333.41 575.75 330.56"
/>
<path stroke="#eccfc5" vector-effect="non-scaling-stroke" d="
  M 423.19 340.60
  L 372.90 348.54
  A 0.65 0.64 -22.1 0 0 372.47 349.55
  C 374.55 352.43 380.74 354.31 384.00 354.95
  Q 402.27 358.51 418.38 347.71"
/>
<path stroke="#95827e" vector-effect="non-scaling-stroke" d="
  M 418.38 347.71
  Q 416.75 353.58 415.33 358.25
  Q 414.96 359.46 416.02 359.66
  A 0.75 0.74 19.8 0 0 416.81 359.29
  L 427.71 340.00
  A 0.86 0.86 0.0 0 0 426.98 338.72
  Q 425.12 338.69 423.19 340.60"
/>
<path stroke="#8f7676" vector-effect="non-scaling-stroke" d="
  M 418.38 347.71
  L 423.19 340.60"
/>
<path stroke="#95827e" vector-effect="non-scaling-stroke" d="
  M 530.60 341.78
  Q 534.45 351.53 537.49 356.50
  Q 538.00 357.33 538.67 358.12
  Q 539.02 358.54 539.55 358.41
  Q 539.81 358.34 539.95 358.12
  Q 540.10 357.88 540.06 357.62
  Q 538.79 349.39 535.68 342.10
  A 2.95 2.94 -9.3 0 0 533.20 340.32
  Q 532.81 340.29 531.75 340.21
  Q 529.93 340.07 530.60 341.78"
/>
<path stroke="#eccfc5" vector-effect="non-scaling-stroke" d="
  M 537.84 342.52
  A 1.33 1.33 0.0 0 0 538.20 344.50
  C 543.28 347.47 548.51 351.71 554.02 353.36
  Q 568.41 357.67 581.01 348.76
  A 0.45 0.45 0.0 0 0 580.95 347.99
  Q 577.25 346.12 573.37 345.92
  Q 559.41 345.22 539.49 341.92
  Q 538.46 341.75 537.84 342.52"
/>
<path stroke="#95827e" vector-effect="non-scaling-stroke" d="
  M 816.78 499.28
  C 810.17 495.27 803.87 491.62 798.48 486.16
  A 0.60 0.60 0.0 0 0 797.51 486.32
  Q 797.24 486.89 797.24 487.54
  Q 797.26 502.18 797.25 513.88
  A 0.99 0.99 0.0 0 0 798.24 514.87
  L 816.94 514.74
  A 0.69 0.69 0.0 0 0 817.63 514.06
  L 817.74 501.01
  Q 817.75 499.87 816.78 499.28"
/>
</g>
<path fill="#38292e" d="
  M 629.62 216.01
  L 621.95 214.68
  Q 626.37 173.58 595.99 147.12
  Q 594.97 146.23 594.27 147.39
  C 582.80 166.36 571.02 185.29 564.14 206.61
  L 538.95 204.10
  C 539.33 203.87 539.81 203.69 540.10 203.35
  Q 557.74 182.88 571.85 159.82
  Q 582.43 142.53 591.59 124.44
  A 0.78 0.78 0.0 0 1 592.63 124.09
  C 621.59 137.95 631.55 167.93 630.58 198.66
  Q 630.23 209.63 629.62 216.01
  Z"
/>
<path fill="#38292e" d="
  M 411.93 203.14
  L 388.40 204.65
  Q 386.08 199.44 383.81 194.33
  Q 372.74 169.35 358.14 147.67
  Q 357.36 146.50 356.29 147.41
  Q 330.49 169.45 329.91 204.00
  Q 329.83 208.76 329.89 213.49
  Q 326.77 215.70 321.73 214.87
  Q 321.88 208.42 321.67 201.55
  Q 321.35 191.53 321.54 188.24
  C 323.03 162.87 334.11 135.59 358.78 124.83
  A 2.32 2.31 60.0 0 1 361.58 125.58
  Q 362.86 127.35 363.86 129.45
  Q 382.90 169.70 411.93 203.14
  Z"
/>
<path fill="#dd624e" d="
  M 621.95 214.68
  L 564.14 206.61
  C 571.02 185.29 582.80 166.36 594.27 147.39
  Q 594.97 146.23 595.99 147.12
  Q 626.37 173.58 621.95 214.68
  Z
  M 599.71 191.55
  Q 600.67 192.54 600.24 193.50
  Q 598.09 198.31 596.02 203.22
  A 0.33 0.33 0.0 0 0 596.37 203.67
  Q 596.63 203.63 596.79 203.43
  Q 602.32 196.23 607.67 189.30
  A 0.67 0.67 0.0 0 0 607.22 188.23
  L 596.76 186.99
  A 0.93 0.93 0.0 0 1 596.05 185.63
  Q 599.58 179.00 606.32 174.69
  A 0.53 0.53 0.0 0 0 606.24 173.76
  Q 605.58 173.49 604.84 173.59
  Q 582.99 176.69 577.85 197.89
  Q 577.73 198.38 578.05 198.78
  A 0.53 0.53 0.0 0 0 578.94 198.67
  Q 582.54 191.03 589.67 184.51
  Q 589.92 184.28 590.24 184.24
  A 0.62 0.62 0.0 0 1 590.94 184.94
  L 589.39 195.63
  A 0.66 0.66 0.0 0 0 590.41 196.27
  L 597.91 191.35
  A 1.42 1.41 51.2 0 1 599.71 191.55
  Z"
/>
<path fill="#dd624e" d="
  M 388.40 204.65
  L 329.89 213.49
  Q 329.83 208.76 329.91 204.00
  Q 330.49 169.45 356.29 147.41
  Q 357.36 146.50 358.14 147.67
  Q 372.74 169.35 383.81 194.33
  Q 386.08 199.44 388.40 204.65
  Z
  M 361.75 184.34
  A 0.52 0.52 0.0 0 1 362.58 184.13
  Q 367.79 188.64 371.81 195.63
  Q 374.30 199.95 373.49 195.03
  C 371.54 183.15 359.53 175.38 348.12 173.97
  Q 347.50 173.89 346.95 174.20
  A 0.88 0.87 -46.2 0 0 346.98 175.74
  Q 353.42 179.02 355.85 185.25
  Q 356.45 186.79 354.81 187.01
  Q 350.31 187.61 345.51 188.06
  Q 344.92 188.12 344.50 188.53
  A 0.87 0.87 0.0 0 0 344.52 189.79
  Q 351.15 195.86 355.21 203.93
  Q 355.55 204.61 355.79 203.89
  L 355.96 203.40
  Q 356.22 202.62 355.90 201.86
  L 351.49 191.63
  A 0.62 0.61 -37.6 0 1 351.58 190.98
  Q 351.87 190.61 352.28 190.65
  Q 352.54 190.68 352.76 190.81
  Q 357.52 193.58 362.14 196.16
  A 0.53 0.53 0.0 0 0 362.87 195.96
  Q 363.15 195.47 363.06 194.93
  Q 362.33 190.29 361.65 185.29
  Q 361.58 184.80 361.75 184.34
  Z"
/>
<path fill="#abc69c" d="
  M 818.67 378.14
  Q 817.55 378.35 817.51 377.55
  A 0.86 0.86 0.0 0 0 816.65 376.74
  Q 807.96 376.74 799.00 376.77
  Q 798.14 376.78 796.95 377.76
  L 797.57 375.40
  Q 797.88 374.22 796.67 374.06
  Q 764.31 369.78 740.59 349.08
  C 703.99 317.15 695.34 262.20 719.33 220.87
  Q 729.38 203.56 745.00 191.28
  C 791.15 154.99 858.09 164.63 891.99 212.56
  Q 902.81 227.87 907.72 245.02
  C 914.02 266.98 911.82 289.98 903.19 311.02
  C 890.06 343.05 863.52 364.34 830.06 372.33
  Q 825.84 373.34 818.32 374.49
  Q 817.72 374.58 817.73 375.19
  Q 817.75 376.79 818.67 378.14
  Z
  M 894.50 271.98
  A 86.11 86.11 0.0 0 0 808.39 185.87
  A 86.11 86.11 0.0 0 0 722.28 271.98
  A 86.11 86.11 0.0 0 0 808.39 358.09
  A 86.11 86.11 0.0 0 0 894.50 271.98
  Z"
/>
<path fill="#e6c3bd" d="
  M 599.71 191.55
  A 1.42 1.41 51.2 0 0 597.91 191.35
  L 590.41 196.27
  A 0.66 0.66 0.0 0 1 589.39 195.63
  L 590.94 184.94
  A 0.62 0.62 0.0 0 0 590.24 184.24
  Q 589.92 184.28 589.67 184.51
  Q 582.54 191.03 578.94 198.67
  A 0.53 0.53 0.0 0 1 578.05 198.78
  Q 577.73 198.38 577.85 197.89
  Q 582.99 176.69 604.84 173.59
  Q 605.58 173.49 606.24 173.76
  A 0.53 0.53 0.0 0 1 606.32 174.69
  Q 599.58 179.00 596.05 185.63
  A 0.93 0.93 0.0 0 0 596.76 186.99
  L 607.22 188.23
  A 0.67 0.67 0.0 0 1 607.67 189.30
  Q 602.32 196.23 596.79 203.43
  Q 596.63 203.63 596.37 203.67
  A 0.33 0.33 0.0 0 1 596.02 203.22
  Q 598.09 198.31 600.24 193.50
  Q 600.67 192.54 599.71 191.55
  Z"
/>
<path fill="#e6c3bd" d="
  M 361.75 184.34
  Q 361.58 184.80 361.65 185.29
  Q 362.33 190.29 363.06 194.93
  Q 363.15 195.47 362.87 195.96
  A 0.53 0.53 0.0 0 1 362.14 196.16
  Q 357.52 193.58 352.76 190.81
  Q 352.54 190.68 352.28 190.65
  Q 351.87 190.61 351.58 190.98
  A 0.62 0.61 -37.6 0 0 351.49 191.63
  L 355.90 201.86
  Q 356.22 202.62 355.96 203.40
  L 355.79 203.89
  Q 355.55 204.61 355.21 203.93
  Q 351.15 195.86 344.52 189.79
  A 0.87 0.87 0.0 0 1 344.50 188.53
  Q 344.92 188.12 345.51 188.06
  Q 350.31 187.61 354.81 187.01
  Q 356.45 186.79 355.85 185.25
  Q 353.42 179.02 346.98 175.74
  A 0.88 0.87 -46.2 0 1 346.95 174.20
  Q 347.50 173.89 348.12 173.97
  C 359.53 175.38 371.54 183.15 373.49 195.03
  Q 374.30 199.95 371.81 195.63
  Q 367.79 188.64 362.58 184.13
  A 0.52 0.52 0.0 0 0 361.75 184.34
  Z"
/>
<path fill="#e4ffd6" d="
  M 894.50 271.98
  A 86.11 86.11 0.0 0 1 808.39 358.09
  A 86.11 86.11 0.0 0 1 722.28 271.98
  A 86.11 86.11 0.0 0 1 808.39 185.87
  A 86.11 86.11 0.0 0 1 894.50 271.98
  Z
  M 890.32 271.99
  A 81.92 81.92 0.0 0 0 808.40 190.07
  A 81.92 81.92 0.0 0 0 726.48 271.99
  A 81.92 81.92 0.0 0 0 808.40 353.91
  A 81.92 81.92 0.0 0 0 890.32 271.99
  Z"
/>
<path fill="#abc69c" d="
  M 890.32 271.99
  A 81.92 81.92 0.0 0 1 808.40 353.91
  A 81.92 81.92 0.0 0 1 726.48 271.99
  A 81.92 81.92 0.0 0 1 808.40 190.07
  A 81.92 81.92 0.0 0 1 890.32 271.99
  Z
  M 788.40 296.23
  A 0.52 0.52 0.0 0 1 787.66 296.23
  L 761.83 270.38
  A 0.52 0.52 0.0 0 0 761.09 270.39
  L 752.90 278.84
  A 0.52 0.52 0.0 0 0 752.90 279.57
  L 787.70 314.36
  A 0.52 0.52 0.0 0 0 788.44 314.36
  L 864.14 238.52
  A 0.52 0.52 0.0 0 0 864.13 237.77
  L 855.56 229.74
  A 0.52 0.52 0.0 0 0 854.83 229.76
  L 788.40 296.23
  Z"
/>
<path fill="#f1dbcd" d="
  M 538.95 204.10
  L 564.14 206.61
  L 621.95 214.68
  L 629.62 216.01
  Q 635.13 219.15 636.69 221.06
  Q 660.26 249.98 680.51 279.09
  Q 687.56 289.23 694.35 300.27
  C 708.83 323.81 718.48 349.23 726.26 376.46
  C 729.05 386.21 732.05 396.84 737.44 405.85
  Q 749.84 426.55 770.98 439.00
  A 1.39 1.39 0.0 0 0 772.29 439.06
  Q 773.54 438.47 773.46 437.02
  C 772.50 419.90 781.46 409.93 796.65 403.99
  Q 806.14 400.96 816.41 399.82
  Q 817.39 399.72 817.90 399.19
  Q 818.51 398.56 818.78 397.72
  Q 818.98 400.44 820.48 400.30
  Q 840.04 398.43 850.07 414.35
  C 854.42 421.27 856.00 430.02 856.80 438.32
  Q 859.70 468.57 850.64 496.05
  C 838.22 533.70 808.83 560.05 770.68 570.36
  C 767.60 571.20 761.71 571.23 762.28 576.01
  Q 763.13 583.11 763.69 589.37
  Q 750.46 595.86 732.78 602.00
  Q 694.18 615.40 662.34 624.35
  C 650.45 627.69 636.52 630.96 623.82 634.17
  C 619.53 635.25 614.68 637.27 610.04 638.43
  Q 600.13 640.92 600.02 640.95
  Q 540.26 657.72 477.90 651.57
  Q 413.16 645.18 362.76 609.13
  Q 299.53 563.88 272.84 488.87
  C 255.45 440.02 250.94 385.87 253.69 334.00
  Q 253.82 331.48 251.20 329.13
  Q 259.50 313.74 267.46 298.24
  Q 268.70 295.84 266.74 294.52
  Q 264.21 292.82 261.71 291.05
  Q 261.60 290.97 261.68 290.87
  L 261.85 290.64
  A 0.36 0.36 0.0 0 1 262.36 290.57
  Q 265.24 292.86 268.98 294.05
  A 0.82 0.81 24.3 0 0 269.93 293.70
  C 286.07 266.67 302.57 240.24 321.73 214.87
  Q 326.77 215.70 329.89 213.49
  L 388.40 204.65
  L 411.93 203.14
  C 453.83 201.74 495.64 201.96 537.50 204.18
  Q 538.25 204.22 538.95 204.10
  Z
  M 514.16 259.06
  Q 509.51 259.17 505.05 259.11
  A 1.15 1.15 0.0 0 1 503.93 258.18
  L 498.24 227.54
  Q 498.16 227.10 497.75 227.29
  L 497.44 227.43
  A 0.37 0.36 -12.9 0 0 497.23 227.76
  L 497.30 264.70
  A 1.59 1.59 0.0 0 0 498.66 266.27
  Q 500.43 266.52 502.23 266.65
  Q 558.07 270.57 611.81 265.79
  A 0.81 0.81 0.0 0 0 612.35 264.46
  Q 611.55 263.54 610.45 263.43
  Q 557.80 258.07 514.16 259.06
  Z
  M 449.78 257.80
  A 0.75 0.74 -86.0 0 1 449.09 258.41
  L 338.37 264.23
  A 0.31 0.31 0.0 0 0 338.08 264.54
  L 338.08 264.82
  Q 338.09 264.88 338.25 264.88
  L 457.28 267.74
  Q 458.33 267.77 458.29 266.72
  L 456.75 228.45
  A 0.68 0.68 0.0 0 0 455.72 227.89
  Q 455.36 228.10 455.28 228.52
  Q 452.54 243.35 449.78 257.80
  Z
  M 456.85 278.89
  Q 440.31 293.42 437.20 314.25
  Q 436.40 319.59 433.41 322.61
  Q 421.90 319.76 415.91 325.31
  L 372.97 330.17
  L 352.78 327.60
  A 1.41 1.40 0.2 0 0 351.21 329.15
  Q 351.32 330.03 351.93 330.77
  Q 356.39 336.14 361.19 342.18
  A 2.34 2.32 70.5 0 0 363.04 343.07
  Q 395.80 342.83 428.24 334.93
  Q 428.77 334.80 428.97 334.46
  Q 429.37 334.51 429.62 334.12
  Q 444.35 311.67 459.62 288.95
  L 474.00 308.60
  L 477.30 381.39
  A 2.34 2.33 59.3 0 1 476.97 382.69
  L 455.15 419.45
  Q 454.87 419.94 455.21 420.39
  L 455.41 420.64
  A 0.43 0.42 46.6 0 0 456.07 420.66
  L 481.49 390.44
  A 1.31 1.31 0.0 0 1 482.16 390.03
  Q 483.30 389.76 483.69 390.34
  Q 492.95 404.09 501.92 417.40
  Q 502.27 417.92 502.54 417.35
  Q 502.63 417.16 502.57 416.96
  C 499.00 403.93 493.52 392.68 486.20 381.82
  Q 485.88 381.34 485.86 380.77
  L 483.57 310.47
  L 496.45 288.92
  C 505.56 298.76 513.08 309.56 519.84 320.98
  Q 520.61 322.28 521.41 322.78
  Q 522.59 323.53 524.16 322.25
  Q 524.60 321.90 524.42 321.36
  Q 521.08 311.39 517.29 302.00
  Q 511.69 288.15 499.12 279.29
  Q 496.60 276.08 493.17 273.10
  C 481.02 262.58 465.55 266.17 456.85 278.89
  Z
  M 366.47 322.58
  Q 375.46 323.41 382.50 323.46
  Q 398.12 323.56 414.48 320.35
  C 417.60 321.02 421.10 320.99 423.34 318.44
  Q 441.16 298.17 445.21 272.97
  A 0.90 0.90 0.0 0 0 444.35 271.93
  L 427.27 271.35
  L 357.66 270.65
  L 329.16 270.24
  A 0.76 0.76 0.0 0 0 328.39 271.13
  Q 329.50 277.51 332.02 282.51
  Q 342.44 303.17 358.19 320.11
  C 360.72 322.84 362.97 323.19 366.47 322.58
  Z
  M 596.73 271.18
  L 526.22 271.80
  L 510.12 272.27
  A 1.05 1.04 81.5 0 0 509.15 273.59
  Q 514.61 293.41 522.93 309.50
  C 527.23 317.81 534.76 325.26 544.57 324.09
  Q 567.27 325.64 588.70 322.91
  L 595.42 321.06
  Q 602.03 322.32 608.49 320.04
  C 609.77 319.59 610.05 318.85 610.77 317.76
  Q 619.39 304.78 619.24 289.35
  L 624.88 271.68
  A 0.71 0.71 0.0 0 0 624.19 270.76
  L 596.73 271.18
  Z
  M 532.53 336.49
  Q 561.81 342.50 591.53 342.20
  A 2.09 2.09 0.0 0 0 593.13 341.43
  Q 597.76 335.79 602.59 329.73
  A 1.05 1.00 -44.7 0 0 602.63 328.47
  Q 602.41 328.18 601.75 328.23
  Q 588.47 329.31 575.75 330.56
  L 546.98 329.75
  L 533.06 328.67
  A 0.17 0.16 16.2 0 0 532.90 328.75
  Q 530.98 331.56 530.00 331.32
  Q 528.09 328.70 526.01 326.24
  Q 525.31 325.41 524.37 325.78
  A 1.10 1.10 0.0 0 0 523.69 327.05
  C 524.56 330.86 527.50 337.32 532.53 336.49
  Z
  M 423.19 340.60
  L 372.90 348.54
  A 0.65 0.64 -22.1 0 0 372.47 349.55
  C 374.55 352.43 380.74 354.31 384.00 354.95
  Q 402.27 358.51 418.38 347.71
  Q 416.75 353.58 415.33 358.25
  Q 414.96 359.46 416.02 359.66
  A 0.75 0.74 19.8 0 0 416.81 359.29
  L 427.71 340.00
  A 0.86 0.86 0.0 0 0 426.98 338.72
  Q 425.12 338.69 423.19 340.60
  Z
  M 530.60 341.78
  Q 534.45 351.53 537.49 356.50
  Q 538.00 357.33 538.67 358.12
  Q 539.02 358.54 539.55 358.41
  Q 539.81 358.34 539.95 358.12
  Q 540.10 357.88 540.06 357.62
  Q 538.79 349.39 535.68 342.10
  A 2.95 2.94 -9.3 0 0 533.20 340.32
  Q 532.81 340.29 531.75 340.21
  Q 529.93 340.07 530.60 341.78
  Z
  M 537.84 342.52
  A 1.33 1.33 0.0 0 0 538.20 344.50
  C 543.28 347.47 548.51 351.71 554.02 353.36
  Q 568.41 357.67 581.01 348.76
  A 0.45 0.45 0.0 0 0 580.95 347.99
  Q 577.25 346.12 573.37 345.92
  Q 559.41 345.22 539.49 341.92
  Q 538.46 341.75 537.84 342.52
  Z
  M 816.78 499.28
  C 810.17 495.27 803.87 491.62 798.48 486.16
  A 0.60 0.60 0.0 0 0 797.51 486.32
  Q 797.24 486.89 797.24 487.54
  Q 797.26 502.18 797.25 513.88
  A 0.99 0.99 0.0 0 0 798.24 514.87
  L 816.94 514.74
  A 0.69 0.69 0.0 0 0 817.63 514.06
  L 817.74 501.01
  Q 817.75 499.87 816.78 499.28
  Z"
/>
<path fill="#432142" d="
  M 514.16 259.06
  Q 557.80 258.07 610.45 263.43
  Q 611.55 263.54 612.35 264.46
  A 0.81 0.81 0.0 0 1 611.81 265.79
  Q 558.07 270.57 502.23 266.65
  Q 500.43 266.52 498.66 266.27
  A 1.59 1.59 0.0 0 1 497.30 264.70
  L 497.23 227.76
  A 0.37 0.36 -12.9 0 1 497.44 227.43
  L 497.75 227.29
  Q 498.16 227.10 498.24 227.54
  L 503.93 258.18
  A 1.15 1.15 0.0 0 0 505.05 259.11
  Q 509.51 259.17 514.16 259.06
  Z"
/>
<path fill="#432142" d="
  M 449.78 257.80
  Q 452.54 243.35 455.28 228.52
  Q 455.36 228.10 455.72 227.89
  A 0.68 0.68 0.0 0 1 456.75 228.45
  L 458.29 266.72
  Q 458.33 267.77 457.28 267.74
  L 338.25 264.88
  Q 338.09 264.88 338.08 264.82
  L 338.08 264.54
  A 0.31 0.31 0.0 0 1 338.37 264.23
  L 449.09 258.41
  A 0.75 0.74 -86.0 0 0 449.78 257.80
  Z"
/>
<path fill="#e4ffd6" d="
  M 788.40 296.23
  L 854.83 229.76
  A 0.52 0.52 0.0 0 1 855.56 229.74
  L 864.13 237.77
  A 0.52 0.52 0.0 0 1 864.14 238.52
  L 788.44 314.36
  A 0.52 0.52 0.0 0 1 787.70 314.36
  L 752.90 279.57
  A 0.52 0.52 0.0 0 1 752.90 278.84
  L 761.09 270.39
  A 0.52 0.52 0.0 0 1 761.83 270.38
  L 787.66 296.23
  A 0.52 0.52 0.0 0 0 788.40 296.23
  Z"
/>
<path fill="#dd624e" d="
  M 499.12 279.29
  L 496.45 288.92
  L 483.57 310.47
  L 479.62 312.04
  A 2.09 2.08 55.0 0 1 477.47 311.66
  L 474.00 308.60
  L 459.62 288.95
  L 456.85 278.89
  C 465.55 266.17 481.02 262.58 493.17 273.10
  Q 496.60 276.08 499.12 279.29
  Z"
/>
<path fill="#f3aa0c" d="
  M 357.66 270.65
  C 359.96 283.34 366.93 296.68 378.02 303.74
  C 394.80 314.43 409.33 305.18 418.98 290.61
  Q 426.05 292.41 428.47 287.67
  C 430.26 284.14 428.46 280.65 425.23 278.84
  L 427.27 271.35
  L 444.35 271.93
  A 0.90 0.90 0.0 0 1 445.21 272.97
  Q 441.16 298.17 423.34 318.44
  C 421.10 320.99 417.60 321.02 414.48 320.35
  Q 419.35 315.06 422.00 309.76
  C 423.00 307.78 424.13 303.02 422.42 300.92
  C 420.93 299.09 418.67 299.68 417.23 301.25
  C 411.07 307.98 402.90 312.05 393.89 311.80
  Q 383.37 311.51 375.87 306.73
  C 371.64 304.04 368.34 300.17 364.45 297.12
  C 361.39 294.72 355.51 293.29 352.41 296.48
  C 349.65 299.33 350.82 304.18 352.58 307.20
  Q 357.54 315.72 366.47 322.58
  C 362.97 323.19 360.72 322.84 358.19 320.11
  Q 342.44 303.17 332.02 282.51
  Q 329.50 277.51 328.39 271.13
  A 0.76 0.76 0.0 0 1 329.16 270.24
  L 357.66 270.65
  Z"
/>
<path fill="#432142" d="
  M 357.66 270.65
  L 427.27 271.35
  L 425.23 278.84
  C 419.90 277.90 415.18 281.06 416.85 286.91
  Q 417.33 288.59 418.98 290.61
  C 409.33 305.18 394.80 314.43 378.02 303.74
  C 366.93 296.68 359.96 283.34 357.66 270.65
  Z"
/>
<path fill="#f3aa0c" d="
  M 619.24 289.35
  Q 609.39 307.34 595.42 321.06
  L 588.70 322.91
  Q 593.39 317.23 598.03 312.32
  Q 601.04 309.12 601.93 307.32
  C 603.43 304.31 604.50 299.14 602.00 296.32
  C 595.96 289.49 585.82 301.32 581.84 305.11
  Q 579.31 307.52 575.90 308.94
  Q 557.61 316.60 541.48 305.27
  Q 539.13 303.62 536.92 301.93
  C 534.34 299.95 529.36 300.71 530.44 305.01
  C 532.61 313.61 537.83 318.76 544.57 324.09
  C 534.76 325.26 527.23 317.81 522.93 309.50
  Q 514.61 293.41 509.15 273.59
  A 1.05 1.04 81.5 0 1 510.12 272.27
  L 526.22 271.80
  Q 529.97 285.78 539.28 296.44
  C 549.73 308.42 565.03 312.30 578.84 303.09
  Q 582.49 300.65 589.10 291.76
  C 595.44 289.77 599.10 285.51 593.63 279.11
  L 596.73 271.18
  L 624.19 270.76
  A 0.71 0.71 0.0 0 1 624.88 271.68
  L 619.24 289.35
  Z"
/>
<path fill="#432142" d="
  M 596.73 271.18
  L 593.63 279.11
  C 582.21 276.81 580.17 287.15 589.10 291.76
  Q 582.49 300.65 578.84 303.09
  C 565.03 312.30 549.73 308.42 539.28 296.44
  Q 529.97 285.78 526.22 271.80
  L 596.73 271.18
  Z"
/>
<path fill="#f1dbcd" d="
  M 425.23 278.84
  C 428.46 280.65 430.26 284.14 428.47 287.67
  Q 426.05 292.41 418.98 290.61
  Q 417.33 288.59 416.85 286.91
  C 415.18 281.06 419.90 277.90 425.23 278.84
  Z"
/>
<path fill="#432142" d="
  M 456.85 278.89
  L 459.62 288.95
  Q 444.35 311.67 429.62 334.12
  Q 429.37 334.51 428.97 334.46
  C 428.75 330.09 431.00 326.34 433.41 322.61
  Q 436.40 319.59 437.20 314.25
  Q 440.31 293.42 456.85 278.89
  Z"
/>
<path fill="#f1dbcd" d="
  M 593.63 279.11
  C 599.10 285.51 595.44 289.77 589.10 291.76
  C 580.17 287.15 582.21 276.81 593.63 279.11
  Z"
/>
<path fill="#432142" d="
  M 499.12 279.29
  Q 511.69 288.15 517.29 302.00
  Q 521.08 311.39 524.42 321.36
  Q 524.60 321.90 524.16 322.25
  Q 522.59 323.53 521.41 322.78
  Q 520.61 322.28 519.84 320.98
  C 513.08 309.56 505.56 298.76 496.45 288.92
  L 499.12 279.29
  Z"
/>
<path fill="#e6c3bd" d="
  M 619.24 289.35
  Q 619.39 304.78 610.77 317.76
  C 610.05 318.85 609.77 319.59 608.49 320.04
  Q 602.03 322.32 595.42 321.06
  Q 609.39 307.34 619.24 289.35
  Z"
/>
<path fill="#fed860" d="
  M 588.70 322.91
  Q 567.27 325.64 544.57 324.09
  C 537.83 318.76 532.61 313.61 530.44 305.01
  C 529.36 300.71 534.34 299.95 536.92 301.93
  Q 539.13 303.62 541.48 305.27
  Q 557.61 316.60 575.90 308.94
  Q 579.31 307.52 581.84 305.11
  C 585.82 301.32 595.96 289.49 602.00 296.32
  C 604.50 299.14 603.43 304.31 601.93 307.32
  Q 601.04 309.12 598.03 312.32
  Q 593.39 317.23 588.70 322.91
  Z"
/>
<path fill="#fed860" d="
  M 414.48 320.35
  Q 398.12 323.56 382.50 323.46
  Q 375.46 323.41 366.47 322.58
  Q 357.54 315.72 352.58 307.20
  C 350.82 304.18 349.65 299.33 352.41 296.48
  C 355.51 293.29 361.39 294.72 364.45 297.12
  C 368.34 300.17 371.64 304.04 375.87 306.73
  Q 383.37 311.51 393.89 311.80
  C 402.90 312.05 411.07 307.98 417.23 301.25
  C 418.67 299.68 420.93 299.09 422.42 300.92
  C 424.13 303.02 423.00 307.78 422.00 309.76
  Q 419.35 315.06 414.48 320.35
  Z"
/>
<path fill="#432142" d="
  M 474.00 308.60
  L 477.47 311.66
  A 2.09 2.08 55.0 0 0 479.62 312.04
  L 483.57 310.47
  L 485.86 380.77
  Q 485.88 381.34 486.20 381.82
  C 493.52 392.68 499.00 403.93 502.57 416.96
  Q 502.63 417.16 502.54 417.35
  Q 502.27 417.92 501.92 417.40
  Q 492.95 404.09 483.69 390.34
  Q 483.30 389.76 482.16 390.03
  A 1.31 1.31 0.0 0 0 481.49 390.44
  L 456.07 420.66
  A 0.43 0.42 46.6 0 1 455.41 420.64
  L 455.21 420.39
  Q 454.87 419.94 455.15 419.45
  L 476.97 382.69
  A 2.34 2.33 59.3 0 0 477.30 381.39
  L 474.00 308.60
  Z"
/>
<path fill="#e6c3bd" d="
  M 433.41 322.61
  C 431.00 326.34 428.75 330.09 428.97 334.46
  Q 428.77 334.80 428.24 334.93
  Q 395.80 342.83 363.04 343.07
  A 2.34 2.32 70.5 0 1 361.19 342.18
  Q 356.39 336.14 351.93 330.77
  Q 351.32 330.03 351.21 329.15
  A 1.41 1.40 0.2 0 1 352.78 327.60
  L 372.97 330.17
  Q 396.66 338.35 415.91 325.31
  Q 421.90 319.76 433.41 322.61
  Z"
/>
<path fill="#f3aa0c" d="
  M 415.91 325.31
  Q 396.66 338.35 372.97 330.17
  L 415.91 325.31
  Z"
/>
<path fill="#38292e" d="
  M 530.00 331.32
  L 532.53 336.49
  C 527.50 337.32 524.56 330.86 523.69 327.05
  A 1.10 1.10 0.0 0 1 524.37 325.78
  Q 525.31 325.41 526.01 326.24
  Q 528.09 328.70 530.00 331.32
  Z"
/>
<path fill="#e6c3bd" d="
  M 532.53 336.49
  L 530.00 331.32
  Q 530.98 331.56 532.90 328.75
  A 0.17 0.16 16.2 0 1 533.06 328.67
  L 546.98 329.75
  Q 548.84 331.29 552.46 332.07
  Q 559.76 333.64 565.00 333.53
  Q 570.74 333.41 575.75 330.56
  Q 588.47 329.31 601.75 328.23
  Q 602.41 328.18 602.63 328.47
  A 1.05 1.00 -44.7 0 1 602.59 329.73
  Q 597.76 335.79 593.13 341.43
  A 2.09 2.09 0.0 0 1 591.53 342.20
  Q 561.81 342.50 532.53 336.49
  Z"
/>
<path fill="#e6c3bd" d="
  M 251.20 329.13
  Q 253.82 331.48 253.69 334.00
  C 250.94 385.87 255.45 440.02 272.84 488.87
  Q 299.53 563.88 362.76 609.13
  Q 413.16 645.18 477.90 651.57
  Q 540.26 657.72 600.02 640.95
  Q 600.13 640.92 610.04 638.43
  C 614.68 637.27 619.53 635.25 623.82 634.17
  C 636.52 630.96 650.45 627.69 662.34 624.35
  Q 694.18 615.40 732.78 602.00
  Q 750.46 595.86 763.69 589.37
  Q 763.65 601.37 763.19 612.49
  Q 760.78 670.50 741.35 725.67
  Q 735.12 743.36 725.55 757.71
  C 722.56 762.18 717.43 763.75 712.26 763.96
  Q 694.97 764.68 675.26 765.06
  Q 617.37 766.15 554.00 766.58
  Q 403.45 767.60 252.13 766.10
  Q 231.50 765.89 199.23 764.03
  Q 160.07 761.76 121.47 746.12
  Q 99.58 737.25 81.44 724.37
  C 68.46 715.15 56.47 703.81 48.17 690.14
  Q 39.16 675.30 35.77 656.14
  Q 33.17 641.40 32.90 628.68
  Q 32.28 600.01 37.97 570.95
  A 1.17 1.15 75.6 0 1 38.33 570.33
  C 39.50 569.30 40.72 570.36 41.45 571.29
  Q 51.45 584.04 61.06 596.14
  A 0.75 0.75 0.0 0 0 62.35 595.93
  Q 62.62 595.18 62.31 594.44
  C 46.49 556.10 40.33 510.18 57.38 471.90
  C 72.59 437.74 100.28 418.83 136.24 411.75
  Q 142.62 410.49 138.26 415.31
  Q 126.86 427.88 120.59 440.09
  Q 104.16 472.12 117.97 503.29
  C 124.93 519.00 136.05 532.58 149.03 544.39
  Q 167.00 560.76 188.25 571.62
  A 1.36 1.36 0.0 0 0 190.21 570.60
  Q 201.05 494.49 219.78 420.51
  Q 231.42 374.52 251.20 329.13
  Z"
/>
<path fill="#f3aa0c" d="
  M 546.98 329.75
  L 575.75 330.56
  Q 570.74 333.41 565.00 333.53
  Q 559.76 333.64 552.46 332.07
  Q 548.84 331.29 546.98 329.75
  Z"
/>
<path fill="#38292e" d="
  M 418.38 347.71
  L 423.19 340.60
  Q 425.12 338.69 426.98 338.72
  A 0.86 0.86 0.0 0 1 427.71 340.00
  L 416.81 359.29
  A 0.75 0.74 19.8 0 1 416.02 359.66
  Q 414.96 359.46 415.33 358.25
  Q 416.75 353.58 418.38 347.71
  Z"
/>
<path fill="#38292e" d="
  M 530.60 341.78
  Q 529.93 340.07 531.75 340.21
  Q 532.81 340.29 533.20 340.32
  A 2.95 2.94 -9.3 0 1 535.68 342.10
  Q 538.79 349.39 540.06 357.62
  Q 540.10 357.88 539.95 358.12
  Q 539.81 358.34 539.55 358.41
  Q 539.02 358.54 538.67 358.12
  Q 538.00 357.33 537.49 356.50
  Q 534.45 351.53 530.60 341.78
  Z"
/>
<path fill="#e6c3bd" d="
  M 423.19 340.60
  L 418.38 347.71
  Q 402.27 358.51 384.00 354.95
  C 380.74 354.31 374.55 352.43 372.47 349.55
  A 0.65 0.64 -22.1 0 1 372.90 348.54
  L 423.19 340.60
  Z"
/>
<path fill="#e6c3bd" d="
  M 537.84 342.52
  Q 538.46 341.75 539.49 341.92
  Q 559.41 345.22 573.37 345.92
  Q 577.25 346.12 580.95 347.99
  A 0.45 0.45 0.0 0 1 581.01 348.76
  Q 568.41 357.67 554.02 353.36
  C 548.51 351.71 543.28 347.47 538.20 344.50
  A 1.33 1.33 0.0 0 1 537.84 342.52
  Z"
/>
<path fill="#38292e" d="
  M 818.67 378.14
  L 818.78 397.72
  Q 818.51 398.56 817.90 399.19
  Q 817.39 399.72 816.41 399.82
  Q 806.14 400.96 796.65 403.99
  Q 796.83 393.51 796.79 383.07
  C 796.78 381.72 796.09 379.52 796.95 377.76
  Q 798.14 376.78 799.00 376.77
  Q 807.96 376.74 816.65 376.74
  A 0.86 0.86 0.0 0 1 817.51 377.55
  Q 817.55 378.35 818.67 378.14
  Z"
/>
<path fill="#38292e" d="
  M 798.48 486.16
  C 803.87 491.62 810.17 495.27 816.78 499.28
  Q 817.75 499.87 817.74 501.01
  L 817.63 514.06
  A 0.69 0.69 0.0 0 1 816.94 514.74
  L 798.24 514.87
  A 0.99 0.99 0.0 0 1 797.25 513.88
  Q 797.26 502.18 797.24 487.54
  Q 797.24 486.89 797.51 486.32
  A 0.60 0.60 0.0 0 1 798.48 486.16
  Z"
/>
</svg>
